<mxfile host="Electron" modified="2023-11-29T18:49:31.194Z" agent="Mozilla/5.0 (Macintosh; Intel Mac OS X 10_15_7) AppleWebKit/537.36 (KHTML, like Gecko) draw.io/22.1.2 Chrome/114.0.5735.289 Electron/25.9.4 Safari/537.36" etag="S5BMS9gfC5kGWlzRfEoi" version="22.1.2" type="device">
  <diagram name="Page-1" id="edf60f1a-56cd-e834-aa8a-f176f3a09ee4">
    <mxGraphModel dx="1340" dy="840" grid="1" gridSize="10" guides="1" tooltips="1" connect="1" arrows="1" fold="1" page="1" pageScale="1" pageWidth="1100" pageHeight="850" background="none" math="0" shadow="0">
      <root>
        <mxCell id="0" />
        <mxCell id="1" parent="0" />
        <mxCell id="hAxuNruYNlIUU9rqMdG9-45" value="" style="rounded=0;whiteSpace=wrap;html=1;strokeWidth=2;fillColor=#f9f7ed;strokeColor=#36393d;" parent="1" vertex="1">
          <mxGeometry x="554" y="526" width="348" height="84" as="geometry" />
        </mxCell>
        <mxCell id="hAxuNruYNlIUU9rqMdG9-42" value="" style="rounded=0;whiteSpace=wrap;html=1;strokeWidth=2;fillColor=#b1ddf0;strokeColor=#10739e;" parent="1" vertex="1">
          <mxGeometry x="554" y="310" width="348" height="218" as="geometry" />
        </mxCell>
        <mxCell id="hAxuNruYNlIUU9rqMdG9-40" value="" style="rounded=0;whiteSpace=wrap;html=1;strokeWidth=2;fillColor=#fad7ac;strokeColor=#b46504;" parent="1" vertex="1">
          <mxGeometry x="199" y="310" width="355" height="300" as="geometry" />
        </mxCell>
        <mxCell id="hAxuNruYNlIUU9rqMdG9-13" style="edgeStyle=orthogonalEdgeStyle;rounded=0;orthogonalLoop=1;jettySize=auto;html=1;exitX=0.5;exitY=1;exitDx=0;exitDy=0;strokeWidth=2;" parent="1" source="hAxuNruYNlIUU9rqMdG9-1" target="hAxuNruYNlIUU9rqMdG9-7" edge="1">
          <mxGeometry relative="1" as="geometry" />
        </mxCell>
        <mxCell id="hAxuNruYNlIUU9rqMdG9-63" value="Pseudo samples" style="edgeLabel;html=1;align=center;verticalAlign=middle;resizable=0;points=[];fontSize=11;" parent="hAxuNruYNlIUU9rqMdG9-13" vertex="1" connectable="0">
          <mxGeometry x="-0.547" y="1" relative="1" as="geometry">
            <mxPoint x="24" as="offset" />
          </mxGeometry>
        </mxCell>
        <mxCell id="hAxuNruYNlIUU9rqMdG9-1" value="&lt;b&gt;Polygon-based distribution data&lt;/b&gt;&lt;br&gt;(Expert range map and census blocks)" style="rounded=0;whiteSpace=wrap;html=1;strokeWidth=2;" parent="1" vertex="1">
          <mxGeometry x="203" y="316" width="150" height="60" as="geometry" />
        </mxCell>
        <mxCell id="hAxuNruYNlIUU9rqMdG9-49" style="edgeStyle=orthogonalEdgeStyle;rounded=0;orthogonalLoop=1;jettySize=auto;html=1;exitX=0.75;exitY=1;exitDx=0;exitDy=0;entryX=0.5;entryY=0;entryDx=0;entryDy=0;strokeWidth=2;fontSize=14;" parent="1" source="hAxuNruYNlIUU9rqMdG9-3" target="hAxuNruYNlIUU9rqMdG9-7" edge="1">
          <mxGeometry relative="1" as="geometry" />
        </mxCell>
        <mxCell id="hAxuNruYNlIUU9rqMdG9-50" value="Optimal scale&lt;br style=&quot;border-color: var(--border-color); font-size: 11px;&quot;&gt;&lt;span style=&quot;font-size: 11px;&quot;&gt;analysis&lt;/span&gt;" style="edgeLabel;html=1;align=center;verticalAlign=middle;resizable=0;points=[];fontSize=11;" parent="hAxuNruYNlIUU9rqMdG9-49" vertex="1" connectable="0">
          <mxGeometry x="-0.6308" relative="1" as="geometry">
            <mxPoint x="2" as="offset" />
          </mxGeometry>
        </mxCell>
        <mxCell id="hAxuNruYNlIUU9rqMdG9-3" value="&lt;b&gt;Coarse-scale&lt;br&gt;environmental variables&lt;/b&gt;&lt;br&gt;(10, 5, 2.5 arc-min)" style="rounded=0;whiteSpace=wrap;html=1;strokeWidth=2;" parent="1" vertex="1">
          <mxGeometry x="397" y="316" width="150" height="60" as="geometry" />
        </mxCell>
        <mxCell id="hAxuNruYNlIUU9rqMdG9-18" style="edgeStyle=orthogonalEdgeStyle;rounded=0;orthogonalLoop=1;jettySize=auto;html=1;exitX=0.5;exitY=1;exitDx=0;exitDy=0;entryX=0.5;entryY=0;entryDx=0;entryDy=0;strokeWidth=2;" parent="1" source="hAxuNruYNlIUU9rqMdG9-7" target="hAxuNruYNlIUU9rqMdG9-9" edge="1">
          <mxGeometry relative="1" as="geometry" />
        </mxCell>
        <mxCell id="hAxuNruYNlIUU9rqMdG9-7" value="&lt;b&gt;Coarse-scale &lt;br&gt;distribution model&lt;/b&gt;&lt;br&gt;(Technique: Isolation Forest)" style="rounded=1;whiteSpace=wrap;html=1;strokeWidth=2;" parent="1" vertex="1">
          <mxGeometry x="377" y="426" width="170" height="44" as="geometry" />
        </mxCell>
        <mxCell id="hAxuNruYNlIUU9rqMdG9-30" style="edgeStyle=orthogonalEdgeStyle;rounded=0;orthogonalLoop=1;jettySize=auto;html=1;exitX=0.5;exitY=1;exitDx=0;exitDy=0;entryX=0.5;entryY=0;entryDx=0;entryDy=0;strokeWidth=2;" parent="1" source="hAxuNruYNlIUU9rqMdG9-9" target="hAxuNruYNlIUU9rqMdG9-28" edge="1">
          <mxGeometry relative="1" as="geometry" />
        </mxCell>
        <mxCell id="hAxuNruYNlIUU9rqMdG9-9" value="&lt;b&gt;Projection at landscape scale&lt;/b&gt;" style="rounded=1;whiteSpace=wrap;html=1;strokeWidth=2;" parent="1" vertex="1">
          <mxGeometry x="377" y="500" width="170" height="40" as="geometry" />
        </mxCell>
        <mxCell id="hAxuNruYNlIUU9rqMdG9-19" style="edgeStyle=orthogonalEdgeStyle;rounded=0;orthogonalLoop=1;jettySize=auto;html=1;exitX=0.5;exitY=1;exitDx=0;exitDy=0;strokeWidth=2;" parent="1" source="hAxuNruYNlIUU9rqMdG9-20" target="hAxuNruYNlIUU9rqMdG9-25" edge="1">
          <mxGeometry relative="1" as="geometry" />
        </mxCell>
        <mxCell id="D5ATWHd9xAyf0Y9bD6al-1" value="Spatially thin" style="edgeLabel;html=1;align=center;verticalAlign=middle;resizable=0;points=[];" parent="hAxuNruYNlIUU9rqMdG9-19" vertex="1" connectable="0">
          <mxGeometry x="-0.2568" y="1" relative="1" as="geometry">
            <mxPoint x="8" as="offset" />
          </mxGeometry>
        </mxCell>
        <mxCell id="hAxuNruYNlIUU9rqMdG9-20" value="&lt;b&gt;Point-based &lt;br&gt;distribution data&lt;/b&gt;&lt;br&gt;(Presence-only occurrence)" style="rounded=0;whiteSpace=wrap;html=1;strokeWidth=2;" parent="1" vertex="1">
          <mxGeometry x="561" y="316" width="150" height="60" as="geometry" />
        </mxCell>
        <mxCell id="hAxuNruYNlIUU9rqMdG9-21" style="edgeStyle=orthogonalEdgeStyle;rounded=0;orthogonalLoop=1;jettySize=auto;html=1;entryX=0.5;entryY=0;entryDx=0;entryDy=0;strokeWidth=2;" parent="1" source="hAxuNruYNlIUU9rqMdG9-23" target="hAxuNruYNlIUU9rqMdG9-25" edge="1">
          <mxGeometry relative="1" as="geometry" />
        </mxCell>
        <mxCell id="hAxuNruYNlIUU9rqMdG9-22" value="Univariate scaling&lt;br&gt;analysis &amp;amp; feature selection" style="edgeLabel;html=1;align=center;verticalAlign=middle;resizable=0;points=[];" parent="hAxuNruYNlIUU9rqMdG9-21" vertex="1" connectable="0">
          <mxGeometry x="-0.0143" y="-2" relative="1" as="geometry">
            <mxPoint x="50" y="-3" as="offset" />
          </mxGeometry>
        </mxCell>
        <mxCell id="hAxuNruYNlIUU9rqMdG9-23" value="&lt;b&gt;Fine-scale&lt;br&gt;environmental variables&lt;/b&gt;&lt;br&gt;(1 km or 0.5 arc-min)" style="rounded=0;whiteSpace=wrap;html=1;strokeWidth=2;" parent="1" vertex="1">
          <mxGeometry x="748" y="316" width="150" height="60" as="geometry" />
        </mxCell>
        <mxCell id="hAxuNruYNlIUU9rqMdG9-31" style="edgeStyle=orthogonalEdgeStyle;rounded=0;orthogonalLoop=1;jettySize=auto;html=1;exitX=0.5;exitY=1;exitDx=0;exitDy=0;strokeWidth=2;" parent="1" source="hAxuNruYNlIUU9rqMdG9-25" target="hAxuNruYNlIUU9rqMdG9-29" edge="1">
          <mxGeometry relative="1" as="geometry" />
        </mxCell>
        <mxCell id="hAxuNruYNlIUU9rqMdG9-25" value="&lt;b&gt;Fine-scale distribution model&lt;/b&gt;&lt;br&gt;(Technique: Isolation Forest)" style="rounded=1;whiteSpace=wrap;html=1;strokeWidth=2;" parent="1" vertex="1">
          <mxGeometry x="643.5" y="426" width="181" height="40" as="geometry" />
        </mxCell>
        <mxCell id="hAxuNruYNlIUU9rqMdG9-35" style="edgeStyle=orthogonalEdgeStyle;rounded=0;orthogonalLoop=1;jettySize=auto;html=1;exitX=1;exitY=0.5;exitDx=0;exitDy=0;entryX=0;entryY=0.5;entryDx=0;entryDy=0;strokeWidth=2;" parent="1" source="hAxuNruYNlIUU9rqMdG9-28" target="hAxuNruYNlIUU9rqMdG9-33" edge="1">
          <mxGeometry relative="1" as="geometry" />
        </mxCell>
        <mxCell id="hAxuNruYNlIUU9rqMdG9-44" value="Prior&lt;br&gt;probability" style="edgeLabel;html=1;align=center;verticalAlign=middle;resizable=0;points=[];" parent="hAxuNruYNlIUU9rqMdG9-35" vertex="1" connectable="0">
          <mxGeometry x="0.3405" relative="1" as="geometry">
            <mxPoint x="-18" as="offset" />
          </mxGeometry>
        </mxCell>
        <mxCell id="hAxuNruYNlIUU9rqMdG9-28" value="Coarse-scale suitability" style="rounded=0;whiteSpace=wrap;html=1;strokeWidth=2;" parent="1" vertex="1">
          <mxGeometry x="402" y="573" width="120" height="30" as="geometry" />
        </mxCell>
        <mxCell id="hAxuNruYNlIUU9rqMdG9-34" style="edgeStyle=orthogonalEdgeStyle;rounded=0;orthogonalLoop=1;jettySize=auto;html=1;exitX=0;exitY=0.5;exitDx=0;exitDy=0;entryX=0.25;entryY=0;entryDx=0;entryDy=0;strokeWidth=2;" parent="1" source="hAxuNruYNlIUU9rqMdG9-29" target="hAxuNruYNlIUU9rqMdG9-33" edge="1">
          <mxGeometry relative="1" as="geometry" />
        </mxCell>
        <mxCell id="hAxuNruYNlIUU9rqMdG9-38" value="Likelihood &lt;br&gt;probability" style="edgeLabel;html=1;align=center;verticalAlign=middle;resizable=0;points=[];" parent="hAxuNruYNlIUU9rqMdG9-34" vertex="1" connectable="0">
          <mxGeometry x="0.6811" y="-1" relative="1" as="geometry">
            <mxPoint x="-4" y="-13" as="offset" />
          </mxGeometry>
        </mxCell>
        <mxCell id="hAxuNruYNlIUU9rqMdG9-29" value="Fine-scale suitability" style="rounded=0;whiteSpace=wrap;html=1;strokeWidth=2;" parent="1" vertex="1">
          <mxGeometry x="674" y="493" width="120" height="30" as="geometry" />
        </mxCell>
        <mxCell id="hAxuNruYNlIUU9rqMdG9-37" style="edgeStyle=orthogonalEdgeStyle;rounded=0;orthogonalLoop=1;jettySize=auto;html=1;exitX=1;exitY=0.5;exitDx=0;exitDy=0;entryX=0;entryY=0.5;entryDx=0;entryDy=0;strokeWidth=2;" parent="1" source="hAxuNruYNlIUU9rqMdG9-33" target="hAxuNruYNlIUU9rqMdG9-36" edge="1">
          <mxGeometry relative="1" as="geometry" />
        </mxCell>
        <mxCell id="hAxuNruYNlIUU9rqMdG9-33" value="&lt;b&gt;Bayes fusion&lt;/b&gt;" style="rounded=1;whiteSpace=wrap;html=1;strokeWidth=2;" parent="1" vertex="1">
          <mxGeometry x="649" y="573" width="100" height="30" as="geometry" />
        </mxCell>
        <mxCell id="hAxuNruYNlIUU9rqMdG9-36" value="Environmental suitability" style="rounded=0;whiteSpace=wrap;html=1;strokeWidth=2;" parent="1" vertex="1">
          <mxGeometry x="778" y="573" width="120" height="30" as="geometry" />
        </mxCell>
        <mxCell id="hAxuNruYNlIUU9rqMdG9-46" value="Coarse-scale SDM" style="text;html=1;strokeColor=none;fillColor=none;align=left;verticalAlign=middle;whiteSpace=wrap;rounded=0;rotation=0;fontSize=14;fontStyle=1" parent="1" vertex="1">
          <mxGeometry x="199" y="580" width="131" height="30" as="geometry" />
        </mxCell>
        <mxCell id="hAxuNruYNlIUU9rqMdG9-47" value="Fine-scale SDM" style="text;html=1;strokeColor=none;fillColor=none;align=left;verticalAlign=middle;whiteSpace=wrap;rounded=0;rotation=-90;fontSize=14;fontStyle=1" parent="1" vertex="1">
          <mxGeometry x="509" y="453" width="120" height="30" as="geometry" />
        </mxCell>
        <mxCell id="hAxuNruYNlIUU9rqMdG9-48" value="Integration" style="text;html=1;strokeColor=none;fillColor=none;align=right;verticalAlign=middle;whiteSpace=wrap;rounded=0;rotation=0;fontSize=14;fontStyle=1" parent="1" vertex="1">
          <mxGeometry x="782" y="528" width="120" height="30" as="geometry" />
        </mxCell>
        <mxCell id="hAxuNruYNlIUU9rqMdG9-51" value="&lt;b&gt;Climatic var.&lt;/b&gt; (0.5 arc-min)" style="rounded=0;whiteSpace=wrap;html=1;strokeWidth=2;fontStyle=0" parent="1" vertex="1">
          <mxGeometry x="203" y="463" width="150" height="30" as="geometry" />
        </mxCell>
        <mxCell id="hAxuNruYNlIUU9rqMdG9-55" style="edgeStyle=orthogonalEdgeStyle;rounded=0;orthogonalLoop=1;jettySize=auto;html=1;exitX=1;exitY=0.25;exitDx=0;exitDy=0;entryX=0;entryY=0.25;entryDx=0;entryDy=0;strokeWidth=2;fontSize=11;" parent="1" source="hAxuNruYNlIUU9rqMdG9-52" target="hAxuNruYNlIUU9rqMdG9-9" edge="1">
          <mxGeometry relative="1" as="geometry">
            <Array as="points">
              <mxPoint x="359" y="510" />
            </Array>
          </mxGeometry>
        </mxCell>
        <mxCell id="hAxuNruYNlIUU9rqMdG9-52" value="&lt;span&gt;&lt;b&gt;Landscape metrics &amp;amp; &lt;br&gt;other environmental var. &lt;/b&gt;&lt;br&gt;(&lt;/span&gt;Focal calculation in moving windows at original resolution)" style="rounded=0;whiteSpace=wrap;html=1;strokeWidth=2;fontStyle=0;align=left;" parent="1" vertex="1">
          <mxGeometry x="203" y="493" width="150" height="70" as="geometry" />
        </mxCell>
      </root>
    </mxGraphModel>
  </diagram>
</mxfile>
